<?xml version="1.0" encoding="UTF-8"?>
<svg id="Layer_2" data-name="Layer 2" xmlns="http://www.w3.org/2000/svg" viewBox="0 0 234.36 234">
  <defs>
    <style>
      .cls-1 {
        font-size: 29.43px;
      }

      .cls-1, .cls-2, .cls-3, .cls-4, .cls-5, .cls-6, .cls-7, .cls-8, .cls-9, .cls-10, .cls-11, .cls-12, .cls-13, .cls-14, .cls-15, .cls-16 {
        isolation: isolate;
      }

      .cls-1, .cls-2, .cls-3, .cls-4, .cls-6, .cls-7, .cls-8, .cls-9, .cls-10, .cls-11, .cls-12, .cls-17, .cls-13, .cls-14, .cls-15, .cls-16 {
        fill: #c55128;
      }

      .cls-1, .cls-2, .cls-3, .cls-4, .cls-6, .cls-7, .cls-8, .cls-9, .cls-10, .cls-11, .cls-12, .cls-13, .cls-14, .cls-15, .cls-16 {
        font-family: NewSpirit-Bold, 'New Spirit';
        font-weight: 700;
      }

      .cls-2 {
        font-size: 29.79px;
        letter-spacing: -.03em;
      }

      .cls-3 {
        letter-spacing: -.03em;
      }

      .cls-3, .cls-12 {
        font-size: 29.79px;
      }

      .cls-4 {
        font-size: 30.09px;
      }

      .cls-18, .cls-19, .cls-20 {
        fill: #fff2dd;
      }

      .cls-18, .cls-20 {
        stroke: #c55128;
        stroke-miterlimit: 10;
      }

      .cls-6 {
        font-size: 29.43px;
      }

      .cls-20 {
        stroke-width: 2px;
      }

      .cls-7 {
        font-size: 29.79px;
      }

      .cls-8 {
        font-size: 29.79px;
      }

      .cls-9 {
        font-size: 28.83px;
        letter-spacing: -.03em;
      }

      .cls-10 {
        font-size: 29.43px;
        letter-spacing: -.02em;
      }

      .cls-11 {
        font-size: 28.82px;
      }

      .cls-13 {
        font-size: 29.79px;
        letter-spacing: -.03em;
      }

      .cls-14 {
        font-size: 29.49px;
      }

      .cls-15 {
        font-size: 29.12px;
      }

      .cls-16 {
        font-size: 29.13px;
      }
    </style>
  </defs>
  <g id="Layer_1-2" data-name="Layer 1-2">
    <g>
      <ellipse class="cls-20" cx="116.74" cy="117.23" rx="115.52" ry="111.34"/>
      <g class="cls-5">
        <text class="cls-13" transform="translate(35.03 107.19) rotate(-73.05) scale(.97 1) skewX(.61)"><tspan x="0" y="0">T</tspan></text>
      </g>
      <g class="cls-5">
        <text class="cls-12" transform="translate(41.03 86.47) rotate(-56.25) scale(.97 1) skewX(.41)"><tspan x="0" y="0">H</tspan></text>
      </g>
      <g class="cls-5">
        <text class="cls-14" transform="translate(54 67.18) rotate(-40.58) scale(.98 1) skewX(.09)"><tspan x="0" y="0">E</tspan></text>
      </g>
      <g class="cls-5">
        <text class="cls-12" transform="translate(80.54 47.71) rotate(-17.61) scale(.97 1) skewX(-.39)"><tspan x="0" y="0">S</tspan></text>
      </g>
      <g class="cls-5">
        <text class="cls-2" transform="translate(97.87 41.79) rotate(-4.14) scale(.97 1) skewX(-.58)"><tspan x="0" y="0">T</tspan></text>
      </g>
      <g class="cls-5">
        <text class="cls-7" transform="translate(119.57 40.18) rotate(10.12) scale(.96 1) skewX(-.64)"><tspan x="0" y="0">U</tspan></text>
      </g>
      <g class="cls-5">
        <text class="cls-8" transform="translate(139.45 43.39) rotate(24.89) scale(.96 1) skewX(-.54)"><tspan x="0" y="0">D</tspan></text>
      </g>
      <g class="cls-5">
        <text class="cls-12" transform="translate(159.7 52.77) rotate(39.69) scale(.96 1) skewX(-.3)"><tspan x="0" y="0">E</tspan></text>
      </g>
      <g class="cls-5">
        <text class="cls-4" transform="translate(175.03 65.15) rotate(54.51) scale(.95 1) skewX(.02)"><tspan x="0" y="0">N</tspan></text>
      </g>
      <g class="cls-5">
        <text class="cls-3" transform="translate(187.57 82.36) rotate(70.41) scale(.96 1) skewX(.36)"><tspan x="0" y="0">T</tspan></text>
      </g>
      <g id="Generative_Object" data-name="Generative Object">
        <path class="cls-17" d="M139.71,142.71c-1.86,1.1-4.48,2.42-6.5,3.19-10.78,4.1-23.04,3.92-33.78-.11-.17-.06-.34-.11-.35-.11-1.94-.76-3.87-1.59-5.67-2.62-11.68-6.67-20.15-21-21.14-34.03l.31-.07c2.02,2.51,8.12,4.17,11.26,4.85l.47,3.07c-1.7-.35-3.41-.96-5.08-1.2,2.31,10.25,10.15,20.85,20.37,24.98.39.16,3.88,1.52,3.96.97-4.21-4.66-7.1-10.42-8.74-16.39-.65-2.38-.9-4.97-1.65-7.23-.16-.47-.48-1.5-.71-1.88-.2-.33-.91-.61-.94-.97,11.33,1.57,22.93,1.75,34.37,1.25,7.95-.35,16.66-1.01,24.39-2.85,3.3-.78,8.05-1.94,9.98-4.78-.52,12.88-9.18,27.21-20.55,33.92h0Z"/>
        <path class="cls-18" d="M84.32,116.88c2.85.59,5.94,1.18,8.86,1.14.76,2.26,1,4.85,1.65,7.23,1.64,5.97,4.53,11.73,8.74,16.39-.07.56-3.56-.81-3.96-.97-10.23-4.14-18.06-14.73-20.37-24.98,1.67.23,3.38.85,5.08,1.2h0Z"/>
        <path class="cls-17" d="M90.82,115.06c.24.03.47.08.71.11.04.36.74.64.94.97.23.38.55,1.4.71,1.88-2.92.04-6-.55-8.86-1.14l-.47-3.07c2.3.5,4.63.91,6.97,1.25Z"/>
        <g>
          <path class="cls-17" d="M133.21,145.9c.52,1.68-.31,2.69-1.71,3.53-5.66,3.39-25.25,3.49-30.71-.23-1.32-.9-1.87-1.81-1.48-3.41h.12c10.73,4.03,23,4.22,33.78.11h0Z"/>
          <path class="cls-17" d="M108.29,150.8c-1.53-.2-3.25-.49-4.72-.91-.05-.02-.66-.24-.94-.34-.24-.23-.1-.65-.12-.68l5.61,1.02.18.91h0Z"/>
          <path class="cls-17" d="M103.57,149.89c1.48.42,3.19.71,4.72.91,2.2.29,4.45.41,6.67.46.69.36-2.21.46-2.36.46-1.75-.03-5.93-.53-7.68-1.02-.46-.13-1.14-.6-1.65-.68l.3-.11v-.02Z"/>
          <path class="cls-17" d="M102.51,148.86s-.13.45.12.68c-.38-.13-.5-.33-.53-.34-.22-.09-.52.14-.83,0-.11-.05-1.36-1-1.36-1.08l.3-.28c.66,1.04,1.93.15,2.3,1.02Z"/>
        </g>
        <g>
          <path class="cls-17" d="M135.27,101.85c-8.72-.39-52.3-.64-58.69,4.1-1.52,1.13-1.54,2.17,0,3.3,5.83,4.27,33.55,5.19,41.59,5.13.28,0-.02,0,.37,0h.51c1.56,0,7.05-.26,8.73-.34,3.04-.15,3.86-.19,5.79-.34,5.48-.44,12.02-1.1,17.3-2.5,1.97-.52,8.78-2.35,5.31-5.12-3.06-2.44-13.1-3.55-17.18-3.98-1.14-.12-2.59-.12-3.73-.23.31-.18-.08-.7.38-.76,1.38-.19,8.67.72,10.38.99,2.45.4,5.37.98,7.74,1.71.15.3-.22.49-.18.57.26.51,6.32,1.49,4.55,4.38-2.24,3.66-21.33,5.61-25.92,5.98-1.1.09-8.47.14-8.68.51-.04.07-.01,1.14.06,1.2h2.3c-11.43.5-23.04.32-34.37-1.25-.24-.03-.47-.08-.71-.11,1.27-.26,8.16,1.13,8.8.8.05-.02.37-.95.24-1.02-5.57-.4-11.21-.95-16.65-2.16-2.77-.62-6.24-1.58-8.74-2.85-.8-.41-1.12-1.37-1.95-.68-.07-.1-.03-.16-.24-.11-.02-.86-.12-1.37.35-2.11,2.66-4.11,22.71-5.92,27.81-6.2,7.23-.41,28.83.05,36.07.36"/>
          <path class="cls-17" d="M160.25,108.8c-1.93,2.84-6.68,4-9.98,4.78-7.73,1.84-16.44,2.5-24.39,2.85h-2.3c-.07-.05-.1-1.12-.06-1.2.21-.37,7.58-.42,8.68-.51,4.59-.36,23.68-2.32,25.92-5.98,1.77-2.89-4.29-3.87-4.55-4.38-.04-.08.33-.27.18-.57,1.63.5,5.94,2.03,6.5,3.7.19.55.02.85,0,1.31h0Z"/>
          <path class="cls-17" d="M90.82,115.06c-2.34-.34-4.66-.75-6.97-1.25-3.14-.68-9.2-1.93-11.22-4.44-.03-.04-.09-.19-.12-.23.83-.69,1.14.28,1.95.68,2.5,1.27,5.97,2.23,8.74,2.85,5.44,1.21,11.09,1.76,16.65,2.16.14.07-.19,1-.24,1.02-.64.33-7.53-1.06-8.8-.8h.01Z"/>
          <path class="cls-19" d="M128.96,101.85c-.1.1-.11.33-.12.34-3.25,4.09-6.87,7.93-9.92,12.18-8.04.07-36.51-.85-42.34-5.12-1.54-1.13-1.52-2.17,0-3.3"/>
          <path class="cls-19" d="M133.21,113.69c2.42-3.45,3.92-7.01,5.27-10.93.08-.23.19-.45.24-.68,4.14.44,14.34,1.54,17.44,3.98,3.52,2.77-3.39,4.6-5.39,5.12-5.36,1.4-12,2.06-17.56,2.5h0Z"/>
          <path class="cls-19" d="M138.75,102.76c-1.33,3.91-2.82,7.48-5.2,10.93-1.93.15-3.86.24-5.79.34,1.94-3.15,3.57-6.49,5.43-9.67.21-.35.98-.74.59-1.25.4-.38.71-.71,1.18-1.02.45.87,2.77.38,3.78.68h.01Z"/>
        </g>
      </g>
      <g class="cls-5">
        <text class="cls-10" transform="translate(38.74 175.64) rotate(43) skewX(-1.93)"><tspan x="0" y="0">K</tspan></text>
      </g>
      <g class="cls-5">
        <text class="cls-16" transform="translate(58.71 193.02) rotate(31.24) scale(1.02 1) skewX(-1.5)"><tspan x="0" y="0">I</tspan></text>
      </g>
      <g class="cls-5">
        <text class="cls-9" transform="translate(70.87 200.77) rotate(19.79) scale(1.03 1) skewX(-.83)"><tspan x="0" y="0">T</tspan></text>
      </g>
      <g class="cls-5">
        <text class="cls-11" transform="translate(96.19 209.32) rotate(5.65) scale(1.03 1) skewX(.15)"><tspan x="0" y="0">C</tspan></text>
      </g>
      <g class="cls-5">
        <text class="cls-15" transform="translate(121.28 211.58) rotate(-9.19) scale(1.02 1) skewX(1.15)"><tspan x="0" y="0">H</tspan></text>
      </g>
      <g class="cls-5">
        <text class="cls-6" transform="translate(149.57 206.29) rotate(-24.32) skewX(1.85)"><tspan x="0" y="0">E</tspan></text>
      </g>
      <g class="cls-5">
        <text class="cls-1" transform="translate(172.06 195.76) rotate(-38.8) skewX(2.05)"><tspan x="0" y="0">N</tspan></text>
      </g>
      <g>
        <path class="cls-17" d="M126.61,77.21c-.77,4.72-3.57,5.75-6.18,8.98-2.08,2.56-4.09,6-.91,8.6-.49.32-1.72-1.04-1.96-1.36-5.51-7.29,4.05-13.61,4.98-19.69.54.17.31-.76.83-1.06,1.57-.9,2.95,3.45,3.24,4.53Z"/>
        <path class="cls-17" d="M112.13,91.69c1.29,1.76,3.29,3.3,4.53,5.05,2.73,3.89,3.4,8.25-.23,11.84,4.03-6.31-4.19-8.75-7.32-12.29-1.4-1.59-2.28-3.41-2.56-5.51,1.66-4.45,3.21.67,5.58.91Z"/>
        <path class="cls-17" d="M135.66,89.58c-.85,6.42-10.97,8.84-6.79,15.61-7.82-7.23,5.03-13.66,3.92-20.74.58-.78.82.17,1.21.53l1.66,4.6h0Z"/>
        <path class="cls-17" d="M100.36,97.12c2.37,4.4,7.98,8.1,3.39,13.88-.11-.46.48-1.03.53-1.43.81-6.17-9.12-6.57-7.24-15.46,1.52-.07,1.75,2.55,3.32,3.02h0Z"/>
        <path class="cls-17" d="M112.13,91.69c-2.37-.24-3.92-5.36-5.58-.91-.69-5.16,1.62-8.36,5.81-11.01-3.37,4.2-3.38,7.62-.23,11.92Z"/>
        <path class="cls-17" d="M126.61,77.21c-.29-1.08-1.68-5.43-3.24-4.53-.52.3-.29,1.23-.83,1.06.62-4.08-1.53-6.38-4.68-8.52,5.6,1.57,9.75,5.84,8.75,11.99Z"/>
        <path class="cls-17" d="M135.66,89.58l-1.66-4.6c-.38-.35-.63-1.31-1.21-.53-.35-2.21-1.73-3.51-3.24-4.98,4.18,1.85,6.74,5.4,6.11,10.11h0Z"/>
        <path class="cls-17" d="M100.36,97.12c-1.56-.47-1.8-3.09-3.32-3.02.5-2.36,1.81-4.09,3.85-5.43-2.07,2.97-2.24,5.26-.53,8.45Z"/>
      </g>
    </g>
  </g>
</svg>